<?xml version="1.0" encoding="iso-8859-1"?>
<!-- Generator: Adobe Illustrator 16.0.0, SVG Export Plug-In . SVG Version: 6.00 Build 0)  -->
<!DOCTYPE svg PUBLIC "-//W3C//DTD SVG 1.1//EN" "http://www.w3.org/Graphics/SVG/1.1/DTD/svg11.dtd">
<svg version="1.1" id="Capa_1" xmlns="http://www.w3.org/2000/svg" xmlns:xlink="http://www.w3.org/1999/xlink" x="0px" y="0px"
	 width="95.664px" height="95.664px" viewBox="0 0 95.664 95.664" style="enable-background:new 0 0 95.664 95.664;"
	 xml:space="preserve">
<g>
	<path d="M94.666,34.666L49.334,0.585c-0.889-0.669-2.115-0.669-3.004,0L0.998,34.666c-0.86,0.646-1.21,1.77-0.869,2.79
		c0.341,1.02,1.296,1.708,2.371,1.708h6.832v53.917c0,1.381,1.119,2.5,2.5,2.5h21.75c1.381,0,2.5-1.119,2.5-2.5V66.165h23.5v26.916
		c0,1.381,1.119,2.5,2.5,2.5h21.75c1.381,0,2.5-1.119,2.5-2.5V39.164h6.832c1.075,0,2.03-0.688,2.371-1.708
		C95.876,36.436,95.526,35.312,94.666,34.666z"/>
</g>
<g>
</g>
<g>
</g>
<g>
</g>
<g>
</g>
<g>
</g>
<g>
</g>
<g>
</g>
<g>
</g>
<g>
</g>
<g>
</g>
<g>
</g>
<g>
</g>
<g>
</g>
<g>
</g>
<g>
</g>
</svg>
